<svg xmlns="http://www.w3.org/2000/svg" viewBox="0 0 1240 760" font-family="Segoe UI, Arial, sans-serif" role="img" aria-label="Azure SRE Agent isolated observability sandbox architecture">
<defs>
<marker id="arrow" viewBox="0 0 10 10" refX="9" refY="5" markerWidth="7" markerHeight="7" orient="auto-start-reverse"><path d="M0 0 L10 5 L0 10 z" fill="#33506b"/></marker>
<marker id="arrowMuted" viewBox="0 0 10 10" refX="9" refY="5" markerWidth="7" markerHeight="7" orient="auto-start-reverse"><path d="M0 0 L10 5 L0 10 z" fill="#8a7fd6"/></marker>
</defs>
<rect x="0" y="0" width="1240" height="48" fill="#0078D4"/>
<text x="620" y="31" text-anchor="middle" fill="#fff" font-size="20" font-weight="700">Azure SRE Agent — Isolated Observability Sandbox (PoC)</text>
<rect x="20" y="64" width="1200" height="676" rx="10" fill="none" stroke="#9CC4E4" stroke-width="1.5" stroke-dasharray="7 5"/>
<text x="36" y="86" fill="#5b7795" font-size="13" font-weight="600">Azure Subscription — isolated · no production connectivity</text>
<rect x="40" y="100" width="1160" height="624" rx="10" fill="#FAFCFE" stroke="#0078D4" stroke-width="1.5" stroke-dasharray="4 4"/>
<text x="56" y="122" fill="#0078D4" font-size="13" font-weight="700">Resource Group — rg-&lt;env&gt;-sre</text>
<rect x="70" y="150" width="190" height="96" rx="10" fill="#0078D4" stroke="#0078D4" stroke-width="1.5"/>
<svg x="84" y="181.0" width="34" height="34" viewBox="2 4 43.998 40" overflow="visible"><path fill="url(#microsoftcopilot_a)" d="M34.142 7.325A4.63 4.63 0 0 0 29.7 4h-1.35a4.63 4.63 0 0 0-4.554 3.794L21.48 20.407l.575-1.965a4.63 4.63 0 0 1 4.444-3.33h7.853l3.294 1.282 3.175-1.283h-.926a4.63 4.63 0 0 1-4.443-3.325l-1.31-4.461z"/><path fill="url(#microsoftcopilot_b)" d="M14.33 40.656A4.63 4.63 0 0 0 18.779 44h2.87a4.63 4.63 0 0 0 4.629-4.51l.312-12.163-.654 2.233a4.63 4.63 0 0 1-4.443 3.329h-7.919l-2.823-1.532-3.057 1.532h.912a4.63 4.63 0 0 1 4.447 3.344l1.279 4.423z"/><path fill="url(#microsoftcopilot_c)" d="M29.5 4H13.46c-4.583 0-7.332 6.057-9.165 12.113C2.123 23.29-.72 32.885 7.503 32.885h6.925a4.63 4.63 0 0 0 4.456-3.358 2078.617 2078.617 0 0 1 4.971-17.156c.843-2.843 1.544-5.284 2.621-6.805C27.08 4.714 28.086 4 29.5 4z"/><path fill="url(#microsoftcopilot_d)" d="M29.5 4H13.46c-4.583 0-7.332 6.057-9.165 12.113C2.123 23.29-.72 32.885 7.503 32.885h6.925a4.63 4.63 0 0 0 4.456-3.358 2078.617 2078.617 0 0 1 4.971-17.156c.843-2.843 1.544-5.284 2.621-6.805C27.08 4.714 28.086 4 29.5 4z"/><path fill="url(#microsoftcopilot_e)" d="M18.498 44h16.04c4.582 0 7.332-6.058 9.165-12.115 2.171-7.177 5.013-16.775-3.208-16.775h-6.926a4.63 4.63 0 0 0-4.455 3.358 2084.036 2084.036 0 0 1-4.972 17.16c-.842 2.843-1.544 5.285-2.62 6.806-.604.852-1.61 1.566-3.024 1.566z"/><path fill="url(#microsoftcopilot_f)" d="M18.498 44h16.04c4.582 0 7.332-6.058 9.165-12.115 2.171-7.177 5.013-16.775-3.208-16.775h-6.926a4.63 4.63 0 0 0-4.455 3.358 2084.036 2084.036 0 0 1-4.972 17.16c-.842 2.843-1.544 5.285-2.62 6.806-.604.852-1.61 1.566-3.024 1.566z"/><defs><radialGradient id="microsoftcopilot_a" cx="0" cy="0" r="1" gradientTransform="matrix(-10.96051 -13.38922 12.59013 -10.30637 38.005 20.514)" gradientUnits="userSpaceOnUse"><stop offset=".096" stop-color="#00AEFF"/><stop offset=".773" stop-color="#2253CE"/><stop offset="1" stop-color="#0736C4"/></radialGradient><radialGradient id="microsoftcopilot_b" cx="0" cy="0" r="1" gradientTransform="rotate(51.84 -28.201 27.85) scale(15.9912 15.5119)" gradientUnits="userSpaceOnUse"><stop stop-color="#FFB657"/><stop offset=".634" stop-color="#FF5F3D"/><stop offset=".923" stop-color="#C02B3C"/></radialGradient><radialGradient id="microsoftcopilot_e" cx="0" cy="0" r="1" gradientTransform="rotate(109.274 16.301 20.802) scale(38.3873 45.9867)" gradientUnits="userSpaceOnUse"><stop offset=".066" stop-color="#8C48FF"/><stop offset=".5" stop-color="#F2598A"/><stop offset=".896" stop-color="#FFB152"/></radialGradient><linearGradient id="microsoftcopilot_c" x1="12.5" x2="14.788" y1="7.5" y2="33.975" gradientUnits="userSpaceOnUse"><stop offset=".156" stop-color="#0D91E1"/><stop offset=".487" stop-color="#52B471"/><stop offset=".652" stop-color="#98BD42"/><stop offset=".937" stop-color="#FFC800"/></linearGradient><linearGradient id="microsoftcopilot_d" x1="14.5" x2="15.75" y1="4" y2="32.885" gradientUnits="userSpaceOnUse"><stop stop-color="#3DCBFF"/><stop offset=".247" stop-color="#0588F7" stop-opacity="0"/></linearGradient><linearGradient id="microsoftcopilot_f" x1="42.586" x2="42.569" y1="13.346" y2="21.215" gradientUnits="userSpaceOnUse"><stop offset=".058" stop-color="#F8ADFA"/><stop offset=".708" stop-color="#A86EDD" stop-opacity="0"/></linearGradient></defs></svg>
<text x="190.0" y="194.0" text-anchor="middle" fill="#ffffff" font-size="13" font-weight="700">Azure SRE Agent</text>
<text x="190.0" y="213.0" text-anchor="middle" fill="#dcecfb" font-size="11">AI investigation</text>
<rect x="320" y="150" width="200" height="96" rx="10" fill="#FFF1E6" stroke="#F46800" stroke-width="1.5"/>
<svg x="334" y="181.0" width="34" height="34" viewBox="0 0 256 279" overflow="visible"><defs><linearGradient id="grafana_a" x1="49.995%" x2="49.995%" y1="122.45%" y2="31.139%"><stop offset="0%" stop-color="#FFF100"/><stop offset="100%" stop-color="#F05A28"/></linearGradient></defs><path fill="url(#grafana_a)" d="M255.59 122.775c-.46-4.675-1.226-10.04-2.759-16.017a98.01 98.01 0 0 0-7.204-19.16 106.69 106.69 0 0 0-13.412-20.54c-2.222-2.681-4.675-5.287-7.28-7.816 3.908-15.558-4.752-29.046-4.752-29.046-14.945-.92-24.448 4.675-27.973 7.204-.613-.23-1.15-.537-1.763-.767-2.529-.996-5.135-1.992-7.894-2.835a130.374 130.374 0 0 0-8.277-2.3c-2.835-.69-5.67-1.226-8.583-1.686-.537-.076-.996-.153-1.533-.23C157.646 8.738 138.946 0 138.946 0c-20.922 13.258-24.831 31.805-24.831 31.805s-.077.383-.23 1.073c-1.15.307-2.299.69-3.449.996-1.609.46-3.218 1.073-4.751 1.686a123.11 123.11 0 0 0-4.752 1.916 117.205 117.205 0 0 0-9.35 4.599c-2.989 1.686-5.9 3.525-8.737 5.441l-.766-.307c-28.97-11.036-54.643 2.223-54.643 2.223-2.376 30.809 11.572 50.198 14.331 53.724-.69 1.916-1.303 3.832-1.916 5.748-2.146 6.974-3.755 14.101-4.751 21.535-.154 1.073-.307 2.146-.384 3.219C7.894 146.916 0 173.97 0 173.97c22.302 25.674 48.359 27.283 48.359 27.283l.077-.076c3.295 5.9 7.127 11.495 11.419 16.783a111.904 111.904 0 0 0 5.671 6.362c-8.124 23.298 1.15 42.61 1.15 42.61 24.83.92 41.155-10.882 44.603-13.564a84.473 84.473 0 0 0 7.511 2.222 109.703 109.703 0 0 0 23.298 3.449c1.916.076 3.909.153 5.825.076H150.672l1.226-.076v.076c11.726 16.708 32.265 19.084 32.265 19.084 14.638-15.405 15.48-30.733 15.48-34.028v-1.38c3.066-2.145 5.979-4.445 8.738-6.974 5.824-5.288 10.959-11.342 15.25-17.857l1.15-1.839c16.554.92 28.28-10.27 28.28-10.27-2.759-17.243-12.569-25.673-14.638-27.283 0 0-.077-.076-.23-.153-.153-.077-.153-.153-.153-.153-.077-.077-.23-.154-.383-.23.076-1.073.153-2.07.23-3.142.153-1.84.153-3.756.153-5.595v-2.913l-.077-1.149-.076-1.533c0-.536-.077-.996-.154-1.456-.076-.46-.076-.996-.153-1.456l-.153-1.456-.23-1.456c-.307-1.916-.613-3.756-1.073-5.672-1.763-7.433-4.675-14.484-8.43-20.845a70.373 70.373 0 0 0-14.025-16.707c-5.365-4.752-11.42-8.584-17.704-11.42-6.36-2.835-12.952-4.675-19.543-5.518-3.295-.46-6.59-.613-9.886-.536h-2.453l-1.226.077c-.46 0-.92.076-1.303.076a51.958 51.958 0 0 0-4.981.69c-6.591 1.226-12.799 3.602-18.24 6.897-5.441 3.296-10.193 7.358-14.025 11.956a54.7 54.7 0 0 0-8.89 15.021 52.857 52.857 0 0 0-3.525 16.094c-.077 1.303-.077 2.683-.077 3.986v.996l.077 1.073c.076.613.076 1.303.153 1.916.23 2.682.766 5.288 1.456 7.74 1.456 4.982 3.755 9.503 6.59 13.335 2.836 3.832 6.285 6.975 9.887 9.504 3.602 2.452 7.51 4.215 11.343 5.364 3.832 1.15 7.664 1.61 11.266 1.61H154.58c.23 0 .46 0 .689-.077.383 0 .766-.077 1.15-.077.076 0 .23 0 .306-.076l.383-.077c.23 0 .46-.076.69-.076.46-.077.843-.154 1.303-.23.46-.077.843-.154 1.226-.307.843-.153 1.61-.46 2.376-.69 1.533-.536 3.066-1.15 4.368-1.839 1.38-.69 2.606-1.533 3.832-2.3.307-.23.69-.459.997-.766 1.226-.996 1.456-2.835.46-4.061-.844-1.073-2.376-1.38-3.603-.69l-.92.46a24.914 24.914 0 0 1-3.295 1.38c-1.15.382-2.375.689-3.602.919-.613.076-1.226.153-1.916.23-.306 0-.613.076-.996.076h-1.84c-.383 0-.766 0-1.149-.076H154.58c-.153 0-.383 0-.536-.077-.383-.077-.69-.077-1.073-.153-2.836-.383-5.671-1.226-8.354-2.453a29.275 29.275 0 0 1-7.74-5.058c-2.376-2.146-4.445-4.675-6.055-7.587-1.61-2.912-2.759-6.131-3.295-9.503-.23-1.686-.383-3.449-.307-5.135 0-.46.077-.92.077-1.38v-.613c0-.23.077-.46.077-.69.076-.919.23-1.839.383-2.758 1.303-7.358 4.981-14.562 10.653-20.003 1.456-1.38 2.988-2.606 4.598-3.755a31.705 31.705 0 0 1 5.211-2.99 35.739 35.739 0 0 1 5.672-2.068c1.915-.537 3.908-.844 5.977-1.073.997-.077 1.993-.154 3.066-.154h2.376l.843.077c2.222.153 4.368.46 6.514.996 4.292.92 8.507 2.53 12.415 4.675 7.818 4.369 14.485 11.113 18.547 19.237 2.07 4.061 3.525 8.43 4.215 12.951.153 1.15.307 2.3.383 3.45l.077.842.077.843v3.296c0 .536-.077 1.456-.077 1.992-.077 1.227-.23 2.53-.383 3.756s-.383 2.452-.613 3.678a49.548 49.548 0 0 1-.843 3.602 64.129 64.129 0 0 1-2.3 7.128 62.417 62.417 0 0 1-7.204 13.105c-5.9 8.124-13.948 14.715-23.144 18.93-4.599 2.069-9.427 3.602-14.408 4.368-2.453.46-4.982.69-7.511.766h-3.832a36.08 36.08 0 0 1-4.062-.23c-5.365-.383-10.653-1.379-15.864-2.835-5.135-1.456-10.116-3.525-14.868-5.978-9.427-5.058-17.933-11.956-24.524-20.31a79.015 79.015 0 0 1-8.584-13.334 79.197 79.197 0 0 1-5.671-14.638c-1.38-5.058-2.223-10.193-2.606-15.405l-.077-.996v-6.821c.077-2.529.307-5.211.614-7.817.306-2.606.766-5.288 1.302-7.894.537-2.605 1.15-5.211 1.916-7.817a102.856 102.856 0 0 1 5.442-14.791c4.368-9.35 10.04-17.704 16.86-24.371 1.686-1.686 3.449-3.22 5.288-4.752a78.196 78.196 0 0 1 5.748-4.138c1.916-1.303 3.985-2.453 6.055-3.526a39.773 39.773 0 0 1 3.142-1.533 11118896.038 11118896.038 0 0 1 3.219-1.379c2.146-.92 4.368-1.686 6.667-2.376.537-.153 1.15-.306 1.686-.536.537-.154 1.15-.307 1.686-.46 1.15-.307 2.3-.613 3.45-.843.536-.153 1.149-.23 1.762-.383.613-.154 1.15-.23 1.763-.384.613-.076 1.15-.23 1.762-.306l.843-.153.92-.154c.613-.076 1.15-.153 1.763-.23.69-.076 1.302-.153 1.992-.23.537-.076 1.456-.153 1.993-.23.383-.076.843-.076 1.226-.153l.843-.076.383-.077h.46c.69-.077 1.303-.077 1.993-.153l.996-.077h.767c.536 0 1.149-.076 1.685-.076a98.944 98.944 0 0 1 6.745 0c4.445.153 8.813.69 13.028 1.456 8.507 1.61 16.478 4.291 23.758 7.893 7.28 3.526 13.719 7.894 19.39 12.646.383.306.69.613 1.073.92.306.306.69.613.996.92.69.612 1.303 1.225 1.993 1.838.69.614 1.303 1.227 1.916 1.84a44.302 44.302 0 0 1 1.839 1.916c2.376 2.529 4.598 5.058 6.59 7.664a98.897 98.897 0 0 1 9.734 15.25l.46.92.46.92c.306.613.613 1.226.843 1.84.306.613.536 1.149.843 1.762.23.613.536 1.15.766 1.763.92 2.299 1.84 4.521 2.53 6.59 1.149 3.373 1.992 6.362 2.682 8.967a2.043 2.043 0 0 0 2.299 1.61c1.15-.077 1.992-.996 1.992-2.146.077-2.759 0-6.054-.383-9.81Z"/></svg>
<text x="445.0" y="194.0" text-anchor="middle" fill="#8a3b00" font-size="13" font-weight="700">Managed Grafana</text>
<text x="445.0" y="213.0" text-anchor="middle" fill="#a85a1f" font-size="11">MCP: /api/azure-mcp</text>
<line x1="260" y1="198" x2="318" y2="198" stroke="#33506b" stroke-width="2" marker-end="url(#arrow)"/>
<text x="289" y="189" text-anchor="middle" fill="#33506b" font-size="11" font-weight="700">MCP</text>
<rect x="560" y="130" width="210" height="300" rx="10" fill="#F3F7FB" stroke="#9CC4E4" stroke-width="1.3" stroke-dasharray="5 4"/>
<text x="665" y="150" text-anchor="middle" fill="#5b7795" font-size="12.5" font-weight="700">Grafana data sources</text>
<rect x="575" y="166" width="180" height="60" rx="10" fill="#FDEAE3" stroke="#e6c3b6" stroke-width="1.5"/>
<rect x="575" y="166" width="6" height="60" rx="3" fill="#E6522C"/>
<svg x="589" y="183.0" width="26" height="26" viewBox="0 0 24 24" overflow="visible"><title>Prometheus</title><path d="M12 0C5.373 0 0 5.372 0 12c0 6.627 5.373 12 12 12s12-5.373 12-12c0-6.628-5.373-12-12-12zm0 22.46c-1.885 0-3.414-1.26-3.414-2.814h6.828c0 1.553-1.528 2.813-3.414 2.813zm5.64-3.745H6.36v-2.046h11.28v2.046zm-.04-3.098H6.391c-.037-.043-.075-.086-.111-.13-1.155-1.401-1.427-2.133-1.69-2.879-.005-.025 1.4.287 2.395.511 0 0 .513.119 1.262.255-.72-.843-1.147-1.915-1.147-3.01 0-2.406 1.845-4.508 1.18-6.207.648.053 1.34 1.367 1.387 3.422.689-.951.977-2.69.977-3.755 0-1.103.727-2.385 1.454-2.429-.648 1.069.168 1.984.894 4.256.272.854.237 2.29.447 3.201.07-1.892.395-4.652 1.595-5.605-.529 1.2.079 2.702.494 3.424.671 1.164 1.078 2.047 1.078 3.716a4.642 4.642 0 01-1.11 2.996c.792-.149 1.34-.283 1.34-.283l2.573-.502s-.374 1.538-1.81 3.019z"/></svg>
<text x="686.0" y="192.0" text-anchor="middle" fill="#7a2b15" font-size="12" font-weight="700">Prometheus</text>
<text x="686.0" y="211.0" text-anchor="middle" fill="#9a4730" font-size="11">metrics</text>
<rect x="575" y="240" width="180" height="60" rx="10" fill="#FFF6E0" stroke="#e7d6a6" stroke-width="1.5"/>
<rect x="575" y="240" width="6" height="60" rx="3" fill="#FEBE2E"/>
<text x="665.0" y="266.0" text-anchor="middle" fill="#7a5a00" font-size="12" font-weight="700">Loki</text>
<text x="665.0" y="285.0" text-anchor="middle" fill="#8a6a10" font-size="11">logs</text>
<rect x="575" y="314" width="180" height="60" rx="10" fill="#ECE6FA" stroke="#cbbdee" stroke-width="1.5"/>
<rect x="575" y="314" width="6" height="60" rx="3" fill="#5C36C6"/>
<text x="665.0" y="340.0" text-anchor="middle" fill="#3c2585" font-size="12" font-weight="700">Tempo</text>
<text x="665.0" y="359.0" text-anchor="middle" fill="#52399f" font-size="11">traces</text>
<line x1="520" y1="196" x2="573" y2="197" stroke="#33506b" stroke-width="1.6" marker-end="url(#arrow)"/>
<line x1="520" y1="200" x2="573" y2="271" stroke="#33506b" stroke-width="1.6" marker-end="url(#arrow)"/>
<line x1="520" y1="204" x2="573" y2="345" stroke="#33506b" stroke-width="1.6" marker-end="url(#arrow)"/>
<text x="543" y="186" text-anchor="middle" fill="#33506b" font-size="11" font-weight="700">query</text>
<rect x="810" y="130" width="200" height="470" rx="10" fill="#F3F7FB" stroke="#9CC4E4" stroke-width="1.3" stroke-dasharray="5 4"/>
<text x="910" y="150" text-anchor="middle" fill="#5b7795" font-size="12.5" font-weight="700">Observability platform</text>
<rect x="825" y="166" width="170" height="70" rx="10" fill="#E6F2FB" stroke="#0078D4" stroke-width="1.5"/>
<svg x="839" y="188.0" width="26" height="26" viewBox="0 0 18 18" overflow="visible"><defs><radialGradient id="azuremonitor_ac8b32da-30ca-4b92-8d0f-8d2d5ef278a0" cx="5.72" cy="7.45" r="8.42" gradientTransform="translate(3.23 1.51) scale(1.01 1.01)" gradientUnits="userSpaceOnUse"><stop offset="0.18" stop-color="#5ea0ef" /><stop offset="0.56" stop-color="#5c9fee" /><stop offset="0.69" stop-color="#559ced" /><stop offset="0.78" stop-color="#4a97e9" /><stop offset="0.86" stop-color="#3990e4" /><stop offset="0.93" stop-color="#2387de" /><stop offset="0.99" stop-color="#087bd6" /><stop offset="1" stop-color="#0078d4" /></radialGradient><radialGradient id="azuremonitor_a9954820-cb38-4943-9842-f0a568d2b015" cx="28.18" cy="202.29" r="2.7" gradientTransform="translate(-17.77 -185.01) scale(0.95)" gradientUnits="userSpaceOnUse"><stop offset="0.19" stop-color="#8c8e90" /><stop offset="0.35" stop-color="#848688" /><stop offset="0.6" stop-color="#6e7071" /><stop offset="0.91" stop-color="#4a4b4c" /><stop offset="1" stop-color="#3e3f3f" /></radialGradient></defs><title>Icon-manage-317</title><ellipse cx="9" cy="9" rx="8.5" ry="8.47" fill="url(#azuremonitor_ac8b32da-30ca-4b92-8d0f-8d2d5ef278a0)" /><ellipse cx="9" cy="9" rx="7.4" ry="7.37" fill="#fff" /><path d="M2.72,9.44a6.24,6.24,0,0,0,1.82,4l2-2a3.53,3.53,0,0,1-1-2Z" fill="#9cebff" /><path d="M13.13,4.27A6.25,6.25,0,0,0,9.44,2.74V5.53a3.41,3.41,0,0,1,1.71.7Z" fill="#32bedd" /><path d="M4.87,4.27l2,2a3.41,3.41,0,0,1,1.71-.7V2.74A6.25,6.25,0,0,0,4.87,4.27Z" fill="#32bedd" /><path d="M11.78,6.85a3.6,3.6,0,0,1,.71,1.71h2.79a6.16,6.16,0,0,0-1.53-3.67Z" fill="#32bedd" /><path d="M6.22,6.85l-2-2A6.16,6.16,0,0,0,2.72,8.56H5.51A3.6,3.6,0,0,1,6.22,6.85Z" fill="#50e6ff" /><path d="M14.14,7a.45.45,0,0,0-.57-.25L9.45,8.41l.32.81,4.12-1.63A.44.44,0,0,0,14.14,7Z" fill="#f04049" /><ellipse cx="9" cy="9" rx="1.2" ry="1.2" fill="url(#azuremonitor_a9954820-cb38-4943-9842-f0a568d2b015)" /></svg>
<text x="931.0" y="197.0" text-anchor="middle" fill="#0a4c86" font-size="12" font-weight="700">Monitor Workspace</text>
<text x="931.0" y="216.0" text-anchor="middle" fill="#3d6f9e" font-size="11">Managed Prometheus</text>
<rect x="825" y="250" width="170" height="70" rx="10" fill="#E6F2FB" stroke="#0078D4" stroke-width="1.5"/>
<svg x="839" y="272.0" width="26" height="26" viewBox="0 0 18 18" overflow="visible"><defs><linearGradient id="azureloganalyticsworkspaces_a997e203-1d7d-4cb9-b131-5dc44e029b46" x1="5.23" y1="17.45" x2="5.23" y2="8.09" gradientUnits="userSpaceOnUse"><stop offset="0" stop-color="#1988d9" /><stop offset="0.9" stop-color="#54aef0" /></linearGradient><linearGradient id="azureloganalyticsworkspaces_e122e9d8-aee5-4f1a-a60e-b1eae355daa5" x1="11.5" y1="12.45" x2="11.5" y2="0.55" gradientUnits="userSpaceOnUse"><stop offset="0" stop-color="#198ab3" /><stop offset="0.01" stop-color="#198bb4" /><stop offset="0.44" stop-color="#27b2d7" /><stop offset="0.79" stop-color="#2fcbed" /><stop offset="1" stop-color="#32d4f5" /></linearGradient></defs><title>Icon-manage-307</title><path d="M5.59,13.13H9.91v4.32H5.59ZM1.15,17.45H4.87V13.13H.55v3.72A.6.6,0,0,0,1.15,17.45Zm-.6-5H4.87V8.09H.55Z" fill="url(#azureloganalyticsworkspaces_a997e203-1d7d-4cb9-b131-5dc44e029b46)" /><path d="M11.5.55a5.89,5.89,0,0,1,5.95,6,5.89,5.89,0,0,1-5.95,5.95H5.55V6.5A5.89,5.89,0,0,1,11.5.55Z" fill-rule="evenodd" fill="url(#azureloganalyticsworkspaces_e122e9d8-aee5-4f1a-a60e-b1eae355daa5)" /><rect x="7.59" y="5.65" width="1.36" height="4.08" fill="#fff" /><rect x="10.31" y="7.01" width="1.36" height="2.72" fill="#fff" /><rect x="13.03" y="4.29" width="1.36" height="5.44" fill="#fff" /></svg>
<text x="931.0" y="281.0" text-anchor="middle" fill="#0a4c86" font-size="12" font-weight="700">Log Analytics</text>
<text x="931.0" y="300.0" text-anchor="middle" fill="#3d6f9e" font-size="11">logs · diagnostics</text>
<rect x="825" y="334" width="170" height="70" rx="10" fill="#E6F2FB" stroke="#0078D4" stroke-width="1.5"/>
<svg x="839" y="356.0" width="26" height="26" viewBox="0 0 18 18" overflow="visible"><defs><radialGradient id="azureapplicationinsights_a7a1c431-6c6d-4a8f-9a69-8da437e5b0c5" cx="9" cy="7.35" r="6.42" gradientUnits="userSpaceOnUse"><stop offset="0" stop-color="#b77af4" /><stop offset="0.21" stop-color="#b378f2" /><stop offset="0.43" stop-color="#a672ed" /><stop offset="0.65" stop-color="#9267e4" /><stop offset="0.88" stop-color="#7559d8" /><stop offset="1" stop-color="#624fd0" /></radialGradient><linearGradient id="azureapplicationinsights_ec0c4f0d-5c8e-4882-96a1-89d61808eb49" x1="9.02" y1="3.91" x2="9.08" y2="11.49" gradientUnits="userSpaceOnUse"><stop offset="0" stop-color="#f2f2f2" /><stop offset="0.23" stop-color="#f1f1f2" stop-opacity="0.99" /><stop offset="0.37" stop-color="#ededf1" stop-opacity="0.95" /><stop offset="0.48" stop-color="#e7e5f0" stop-opacity="0.89" /><stop offset="0.58" stop-color="#dedbee" stop-opacity="0.81" /><stop offset="0.67" stop-color="#d3ceeb" stop-opacity="0.7" /><stop offset="0.76" stop-color="#c4bee8" stop-opacity="0.57" /><stop offset="0.84" stop-color="#b4abe5" stop-opacity="0.41" /><stop offset="0.92" stop-color="#a095e1" stop-opacity="0.22" /><stop offset="0.99" stop-color="#8b7ddc" stop-opacity="0.02" /><stop offset="1" stop-color="#897bdc" stop-opacity="0" /></linearGradient></defs><title>Icon-manage-310</title><path d="M10.23,17.39l.81-.87V14.2H7v2.32l.81.87A.32.32,0,0,0,8,17.5h2A.32.32,0,0,0,10.23,17.39Z" fill="#cecece" /><path d="M9,.5A5.89,5.89,0,0,0,3.09,7.07c.27,2.47,2.62,3.62,3.29,6.75a.49.49,0,0,0,.47.38h4.3a.49.49,0,0,0,.47-.38c.67-3.13,3-4.28,3.29-6.75A5.89,5.89,0,0,0,9,.5ZM7,14.2" fill="url(#azureapplicationinsights_a7a1c431-6c6d-4a8f-9a69-8da437e5b0c5)" /><path d="M11.46,3.79a1.4,1.4,0,0,0-1.35,1.44V6H8V5.23A1.41,1.41,0,0,0,6.59,3.79,1.4,1.4,0,0,0,5.24,5.23,1.41,1.41,0,0,0,6.59,6.68h.64v6a.36.36,0,0,0,.72,0v-6h2.16v6a.36.36,0,1,0,.72,0v-6h.63a1.4,1.4,0,0,0,1.35-1.45A1.4,1.4,0,0,0,11.46,3.79ZM7.23,6H6.55a.74.74,0,0,1-.68-.77.74.74,0,0,1,.68-.77.74.74,0,0,1,.68.77Zm4.28,0h-.68V5.19a.68.68,0,1,1,1.35,0A.73.73,0,0,1,11.51,6Z" fill="url(#azureapplicationinsights_ec0c4f0d-5c8e-4882-96a1-89d61808eb49)" /><polygon points="6.96 15.8 11.04 15.01 11.04 14.56 6.96 15.36 6.96 15.8" fill="#999" /><polygon points="11.04 16.11 11.04 15.67 6.96 16.48 6.96 16.52 7.27 16.86 11.04 16.11" fill="#999" /></svg>
<text x="931.0" y="365.0" text-anchor="middle" fill="#0a4c86" font-size="12" font-weight="700">App Insights</text>
<text x="931.0" y="384.0" text-anchor="middle" fill="#3d6f9e" font-size="11">app telemetry</text>
<rect x="825" y="418" width="170" height="72" rx="10" fill="#E6F2FB" stroke="#0078D4" stroke-width="1.5"/>
<svg x="839" y="441.0" width="26" height="26" viewBox="0 0 18 18" overflow="visible"><defs><linearGradient id="azuredatacollectionrules_bbff16ce-7aad-4b86-8bb2-89788b5b99a6" x1="10.463" y1="15.888" x2="10.463" y2="-2.112" gradientUnits="userSpaceOnUse"><stop offset="0" stop-color="#0078d4" /><stop offset="1" stop-color="#5ea0ef" /></linearGradient><linearGradient id="azuredatacollectionrules_b0f3e3a3-1263-4ba0-98ae-dae6e73e6321" x1="7.179" y1="0.537" x2="7.179" y2="12.51" gradientUnits="userSpaceOnUse"><stop offset="0" stop-color="#50e6ff" /><stop offset="1" stop-color="#32bedd" /></linearGradient></defs><rect x="3.113" width="14.7" height="18" rx="0.6" fill="url(#azuredatacollectionrules_bbff16ce-7aad-4b86-8bb2-89788b5b99a6)" /><rect x="0.187" y="1.867" width="13.985" height="7.291" rx="0.541" fill="url(#azuredatacollectionrules_b0f3e3a3-1263-4ba0-98ae-dae6e73e6321)" /><path d="M11.887,4.423H5.069a.122.122,0,0,1-.124-.12V3.9a.123.123,0,0,1,.123-.123h6.818a.124.124,0,0,1,.124.123v.4a.122.122,0,0,1-.122.123Zm-7.9.291V3.488a.212.212,0,0,0-.212-.212H2.547a.212.212,0,0,0-.212.211h0V4.714a.211.211,0,0,0,.211.211H3.773a.211.211,0,0,0,.212-.211Z" fill="#fff" /><path d="M11.886,7.023H5.069A.124.124,0,0,1,4.945,6.9h0V6.494a.124.124,0,0,1,.124-.124h6.816a.125.125,0,0,1,.124.124v.4a.125.125,0,0,1-.123.125ZM3.68,6.194H2.657v1.02H3.68V6.194m.107-.321A.216.216,0,0,1,4,6.087V7.32a.214.214,0,0,1-.214.213H2.55a.213.213,0,0,1-.213-.213V6.083A.213.213,0,0,1,2.55,5.87Z" fill="#fff" opacity="0.8" /><path d="M13.382,11.108a.121.121,0,0,0-.084-.035.118.118,0,0,0-.117.119v1.365h0v.122H3.113v1.773H13.181v1.385a.118.118,0,0,0,.2.084L15.705,13.6l0,0a.117.117,0,0,0,0-.166Z" fill="#83b9f9" />​
</svg>
<text x="931.0" y="450.0" text-anchor="middle" fill="#0a4c86" font-size="12" font-weight="700">Data Collection</text>
<text x="931.0" y="469.0" text-anchor="middle" fill="#3d6f9e" font-size="11">Endpoint + Rules</text>
<line x1="757" y1="197" x2="823" y2="199" stroke="#33506b" stroke-width="1.8" marker-end="url(#arrow)"/>
<text x="790" y="190" text-anchor="middle" fill="#33506b" font-size="10.5" font-weight="700">PromQL</text>
<line x1="945" y1="418" x2="945" y2="238" stroke="#33506b" stroke-width="1.6" marker-end="url(#arrow)"/>
<text x="963" y="330" text-anchor="middle" fill="#33506b" font-size="10.5" font-weight="700" transform="rotate(90 963 330)">ingest</text>
<rect x="70" y="300" width="190" height="80" rx="10" fill="#EEEEFB" stroke="#6B69D6" stroke-width="1.5"/>
<svg x="84" y="323.0" width="34" height="34" viewBox="0 0 18 18" overflow="visible"><defs><linearGradient id="azuremanagedidentities_bb67b154-af8f-4a53-a9ce-aa046b9398e9" x1="13.18" y1="13.01" x2="8.63" y2="4.38" gradientUnits="userSpaceOnUse"><stop offset="0" stop-color="#1988d9" /><stop offset="0.9" stop-color="#54aef0" /></linearGradient><linearGradient id="azuremanagedidentities_a47d7138-084a-471d-8d63-744e75b9e8a3" x1="11.22" y1="10.5" x2="14.37" y2="15.93" gradientUnits="userSpaceOnUse"><stop offset="0.1" stop-color="#54aef0" /><stop offset="0.29" stop-color="#4fabee" /><stop offset="0.51" stop-color="#41a2e9" /><stop offset="0.74" stop-color="#2a93e0" /><stop offset="0.88" stop-color="#1988d9" /></linearGradient></defs><title>Icon-identity-227</title><g><polygon points="1.15 10.22 8.93 15.27 16.85 10.21 17.85 11.36 8.93 17.11 0.15 11.37 1.15 10.22" fill="#50e6ff" /><polygon points="1.73 9.58 8.93 1 16.28 9.59 8.93 14.23 1.73 9.58" fill="#fff" /><polygon points="8.93 1 8.93 14.23 1.73 9.58 8.93 1" fill="#50e6ff" /><polygon points="8.93 1 8.93 14.23 16.28 9.59 8.93 1" fill="url(#azuremanagedidentities_bb67b154-af8f-4a53-a9ce-aa046b9398e9)" /><polygon points="8.93 7.83 16.28 9.59 8.93 14.23 8.93 7.83" fill="#53b1e0" /><polygon points="8.93 14.23 1.73 9.58 8.93 7.83 8.93 14.23" fill="#9cebff" /><polygon points="8.93 17.11 17.85 11.36 16.85 10.21 8.93 15.27 8.93 17.11" fill="url(#azuremanagedidentities_a47d7138-084a-471d-8d63-744e75b9e8a3)" /><g><path id="azuremanagedidentities_e189a61f-631a-4122-bb2b-079e86004d96" d="M16.32,11.88a1.16,1.16,0,0,0,0-1.65h0l-2-2a1.16,1.16,0,0,0-1.64,0h0l-2,2a1.18,1.18,0,0,0,0,1.65l1.67,1.67a.32.32,0,0,1,.09.23v3.1a.36.36,0,0,0,.12.28l.76.76a.25.25,0,0,0,.37,0l.73-.73h0l.44-.44a.15.15,0,0,0,0-.21l-.31-.31a.16.16,0,0,1,0-.24l.31-.31a.16.16,0,0,0,0-.22l-.31-.31a.15.15,0,0,1,0-.23l.31-.32a.15.15,0,0,0,0-.21l-.44-.44v-.16ZM13.5,8.71a.66.66,0,1,1-.66.66.66.66,0,0,1,.66-.66Z" fill="#ffca00" /><path id="azuremanagedidentities_fb7033ee-4650-4886-80c7-eddf62560f85" d="M13,17h0a.14.14,0,0,0,.24-.11V14.33a.16.16,0,0,0-.06-.13h0a.14.14,0,0,0-.22.13v2.51A.15.15,0,0,0,13,17Z" fill="#ff9300" opacity="0.75" /><rect id="azuremanagedidentities_b166b8c2-b9ee-4c3d-bf7a-77bd5ce0570b" x="11.9" y="10.9" width="3.29" height="0.39" rx="0.18" fill="#ff9300" opacity="0.75" /><rect id="azuremanagedidentities_baf437fe-3483-4a25-94ba-1e84a64cd2eb" x="11.9" y="11.53" width="3.29" height="0.39" rx="0.18" fill="#ff9300" opacity="0.75" /></g></g></svg>
<text x="190.0" y="336.0" text-anchor="middle" fill="#3c3a96" font-size="12" font-weight="700">Managed Identity</text>
<text x="190.0" y="355.0" text-anchor="middle" fill="#5b59b5" font-size="11">RBAC · least priv</text>
<line x1="165" y1="300" x2="165" y2="248" stroke="#8a7fd6" stroke-width="1.8" marker-end="url(#arrowMuted)"/>
<text x="183" y="276" text-anchor="middle" fill="#6B69D6" font-size="10.5" font-weight="700" transform="rotate(90 183 276)">identity</text>
<path d="M260 335 H295 V250 H318" fill="none" stroke="#8a7fd6" stroke-width="1.5" stroke-dasharray="5 4" marker-end="url(#arrowMuted)"/>
<text x="295" y="300" text-anchor="middle" fill="#6B69D6" font-size="10" font-weight="700" transform="rotate(90 295 300)">RBAC</text>
<rect x="300" y="470" width="320" height="100" rx="10" fill="#E6F2FB" stroke="#0078D4" stroke-width="1.5"/>
<svg x="314" y="503.0" width="34" height="34" viewBox="0 0 18 18" overflow="visible"><defs><linearGradient id="azurestorageaccounts_ad4c4f96-09aa-4f91-ba10-5cb8ad530f74" x1="9" y1="15.83" x2="9" y2="5.79" gradientUnits="userSpaceOnUse"><stop offset="0" stop-color="#b3b3b3" /><stop offset="0.26" stop-color="#c1c1c1" /><stop offset="1" stop-color="#e6e6e6" /></linearGradient></defs><title>Icon-storage-86</title><path d="M.5,5.79h17a0,0,0,0,1,0,0v9.48a.57.57,0,0,1-.57.57H1.07a.57.57,0,0,1-.57-.57V5.79A0,0,0,0,1,.5,5.79Z" fill="url(#azurestorageaccounts_ad4c4f96-09aa-4f91-ba10-5cb8ad530f74)" /><path d="M1.07,2.17H16.93a.57.57,0,0,1,.57.57V5.79a0,0,0,0,1,0,0H.5a0,0,0,0,1,0,0V2.73A.57.57,0,0,1,1.07,2.17Z" fill="#37c2b1" /><path d="M2.81,6.89H15.18a.27.27,0,0,1,.26.27v1.4a.27.27,0,0,1-.26.27H2.81a.27.27,0,0,1-.26-.27V7.16A.27.27,0,0,1,2.81,6.89Z" fill="#fff" /><path d="M2.82,9.68H15.19a.27.27,0,0,1,.26.27v1.41a.27.27,0,0,1-.26.27H2.82a.27.27,0,0,1-.26-.27V10A.27.27,0,0,1,2.82,9.68Z" fill="#37c2b1" /><path d="M2.82,12.5H15.19a.27.27,0,0,1,.26.27v1.41a.27.27,0,0,1-.26.27H2.82a.27.27,0,0,1-.26-.27V12.77A.27.27,0,0,1,2.82,12.5Z" fill="#258277" /></svg>
<text x="485.0" y="516.0" text-anchor="middle" fill="#0a4c86" font-size="14" font-weight="700">Azure Storage Account</text>
<text x="485.0" y="535.0" text-anchor="middle" fill="#3d6f9e" font-size="11">staging containers (historical export)</text>
<text x="475" y="540" text-anchor="middle" fill="#3d6f9e" font-size="11">metrics · logs · traces · incidents · cmdb · topology</text>
<text x="475" y="557" text-anchor="middle" fill="#7a93ab" font-size="10.5">UTC · ISO 8601</text>
<path d="M520 470 V440 H665 V378" fill="none" stroke="#33506b" stroke-width="1.8" marker-end="url(#arrow)"/>
<text x="600" y="432" text-anchor="middle" fill="#33506b" font-size="11" font-weight="700">historical import / backfill</text>
<rect x="680" y="470" width="160" height="100" rx="10" fill="#E6F2FB" stroke="#0078D4" stroke-width="1.5"/>
<svg x="694" y="503.0" width="34" height="34" viewBox="0 0 18 18" overflow="visible"><defs><linearGradient id="azureazuredataexplorerclusters_ea6f59fb-306a-4655-8ef5-c9678451765c" x1="1.3" y1="8.6" x2="17.5" y2="8.6" gradientUnits="userSpaceOnUse"><stop offset="0.1" stop-color="#54aef0" /><stop offset="1" stop-color="#1988d9" /></linearGradient><linearGradient id="azureazuredataexplorerclusters_a331b263-1cab-4091-811f-6e285c35c115" x1="0.5" y1="13.7" x2="8.11" y2="13.7" gradientTransform="translate(10.95 0.97) rotate(45)" gradientUnits="userSpaceOnUse"><stop offset="0" stop-color="#b3b2b3" /><stop offset="1" stop-color="#979797" /></linearGradient><linearGradient id="azureazuredataexplorerclusters_ef7d2642-0773-456f-ac58-3a1abd750919" x1="0.5" y1="10.08" x2="5.72" y2="10.08" gradientTransform="translate(8.04 0.75) rotate(45)" gradientUnits="userSpaceOnUse"><stop offset="0" stop-color="#b3b2b3" /><stop offset="1" stop-color="#979797" /></linearGradient><linearGradient id="azureazuredataexplorerclusters_a156353f-4d63-4962-9d1c-839eceb7590b" x1="5.28" y1="14.89" x2="10.49" y2="14.89" gradientTransform="translate(12.84 -1.21) rotate(45)" gradientUnits="userSpaceOnUse"><stop offset="0" stop-color="#b3b2b3" /><stop offset="1" stop-color="#979797" /></linearGradient></defs><title>Icon-analytics-145</title><g><path d="M1.47,1.47,16.53,16.53a.57.57,0,0,0,1-.4V1.07A.57.57,0,0,0,16.93.5H1.87A.57.57,0,0,0,1.47,1.47Z" fill="url(#azureazuredataexplorerclusters_ea6f59fb-306a-4655-8ef5-c9678451765c)" /><path id="azureazuredataexplorerclusters_f582129e-1fd7-440c-a5c4-799b0a032e7c" d="M5.53,5.53l6.94,6.94,5-5V1.07A.57.57,0,0,0,16.93.5H10.56Z" fill="#50e6ff" /><rect id="azureazuredataexplorerclusters_b55df55b-2ac6-4f92-ba84-9d8becd854da" x="-0.38" y="12.85" width="9.37" height="1.7" rx="0.27" transform="translate(-8.43 7.06) rotate(-45)" fill="url(#azureazuredataexplorerclusters_a331b263-1cab-4091-811f-6e285c35c115)" /><rect id="azureazuredataexplorerclusters_a1d88672-156d-4d85-8ddb-d3d546338b0e" x="0.12" y="9.23" width="5.99" height="1.7" rx="0.27" transform="translate(-6.22 5.15) rotate(-45)" fill="url(#azureazuredataexplorerclusters_ef7d2642-0773-456f-ac58-3a1abd750919)" /><rect id="azureazuredataexplorerclusters_a50d2abb-ca8f-44bb-a92d-5a79f17e98d0" x="4.89" y="14.04" width="5.99" height="1.7" rx="0.27" transform="translate(-8.22 9.93) rotate(-45)" fill="url(#azureazuredataexplorerclusters_a156353f-4d63-4962-9d1c-839eceb7590b)" /><rect id="azureazuredataexplorerclusters_abef2dbd-e94f-4bb4-9503-d2b3cf2041a9" x="9.19" y="4.75" width="1.7" height="1.7" rx="0.38" transform="translate(-1.02 8.74) rotate(-45)" fill="#fff" /><rect id="azureazuredataexplorerclusters_a157044f-57ca-43a1-b77d-760bafa34854" x="11.59" y="2.35" width="1.7" height="1.7" rx="0.38" transform="translate(1.38 9.73) rotate(-45)" fill="#fff" /><rect id="azureazuredataexplorerclusters_b637d7ff-a1d5-4533-b34f-12a87620ff68" x="11.59" y="7.15" width="1.7" height="1.7" rx="0.38" transform="translate(-2.01 11.14) rotate(-45)" fill="#fff" /><path id="azureazuredataexplorerclusters_f613147f-9647-4c5d-a52a-663abb19234f" d="M13.91,5.33l.66-.66a.38.38,0,0,1,.54,0l.66.66a.38.38,0,0,1,0,.54l-.66.66a.38.38,0,0,1-.54,0l-.66-.66a.38.38,0,0,1,0-.54" fill="#fff" /></g></svg>
<text x="785.0" y="516.0" text-anchor="middle" fill="#0a4c86" font-size="13" font-weight="700">Data Explorer</text>
<text x="785.0" y="535.0" text-anchor="middle" fill="#3d6f9e" font-size="11">sreagent database</text>
<text x="765" y="548" text-anchor="middle" fill="#3d6f9e" font-size="10.5">incidents · CMDB · topology</text>
<line x1="620" y1="520" x2="678" y2="520" stroke="#33506b" stroke-width="1.8" marker-end="url(#arrow)"/>
<text x="649" y="512" text-anchor="middle" fill="#33506b" font-size="10.5" font-weight="700">ingest</text>
<rect x="1030" y="470" width="150" height="100" rx="10" fill="#E6F2FB" stroke="#0078D4" stroke-width="1.5"/>
<svg x="1044" y="503.0" width="34" height="34" viewBox="0 0 18 18" overflow="visible"><defs><radialGradient id="azurekeyvaults_fb114c93-7c16-4540-899a-0796041629e6" cx="9" cy="9" r="8.5" gradientUnits="userSpaceOnUse"><stop offset="0.18" stop-color="#5ea0ef" /><stop offset="0.56" stop-color="#5c9fee" /><stop offset="0.69" stop-color="#559ced" /><stop offset="0.78" stop-color="#4a97e9" /><stop offset="0.86" stop-color="#3990e4" /><stop offset="0.93" stop-color="#2387de" /><stop offset="0.99" stop-color="#087bd6" /><stop offset="1" stop-color="#0078d4" /></radialGradient><radialGradient id="azurekeyvaults_ec478bd3-5b38-4e7f-b661-11f355578bff" cx="38.95" cy="182.07" r="9.88" gradientTransform="translate(-28.71 -163.24) scale(0.94 0.94)" gradientUnits="userSpaceOnUse"><stop offset="0.27" stop-color="#ffd70f" /><stop offset="0.49" stop-color="#ffcb12" /><stop offset="0.88" stop-color="#feac19" /><stop offset="1" stop-color="#fea11b" /></radialGradient></defs><title>Icon-security-245</title><path id="azurekeyvaults_aacf8311-a317-400f-b613-74bd00da5ce3" d="M9,.5A8.5,8.5,0,1,0,17.5,9,8.51,8.51,0,0,0,9,.5ZM9,16.34A7.34,7.34,0,1,1,16.34,9,7.34,7.34,0,0,1,9,16.34Z" fill="url(#azurekeyvaults_fb114c93-7c16-4540-899a-0796041629e6)" /><circle cx="9" cy="9" r="7.34" fill="#fff" /><g><path id="azurekeyvaults_bd983c41-db73-40ec-a4f4-da1213fc9924" d="M13.44,7.33a1.84,1.84,0,0,0,0-2.59h0L10.29,1.58a1.83,1.83,0,0,0-2.58,0h0L4.56,4.74a1.84,1.84,0,0,0,0,2.59L7.18,10a.51.51,0,0,1,.15.36v4.88a.63.63,0,0,0,.18.44l1.2,1.2a.41.41,0,0,0,.58,0l1.16-1.16h0l.68-.68a.25.25,0,0,0,0-.34l-.49-.49a.27.27,0,0,1,0-.37l.49-.49a.25.25,0,0,0,0-.34l-.49-.49a.27.27,0,0,1,0-.37l.49-.49a.25.25,0,0,0,0-.34l-.68-.69v-.25ZM9,2.35A1,1,0,0,1,9,4.42,1,1,0,1,1,9,2.35Z" fill="url(#azurekeyvaults_ec478bd3-5b38-4e7f-b661-11f355578bff)" /><path id="azurekeyvaults_ad2e7e44-9bfd-4775-8bf4-8ef26a544921" d="M8.18,15.3h0a.23.23,0,0,0,.38-.17v-4a.24.24,0,0,0-.11-.2h0a.22.22,0,0,0-.34.2v4A.28.28,0,0,0,8.18,15.3Z" fill="#ff9300" opacity="0.75" /><rect id="azurekeyvaults_a996fbff-3936-4b24-b407-369336c143ba" x="6.48" y="5.79" width="5.17" height="0.61" rx="0.28" fill="#ff9300" opacity="0.75" /><rect id="azurekeyvaults_bb12d31c-3352-4a18-87dd-a169a4a8721d" x="6.48" y="6.78" width="5.17" height="0.61" rx="0.28" fill="#ff9300" opacity="0.75" /></g></svg>
<text x="1130.0" y="516.0" text-anchor="middle" fill="#0a4c86" font-size="13" font-weight="700">Key Vault</text>
<text x="1130.0" y="535.0" text-anchor="middle" fill="#3d6f9e" font-size="11">RBAC mode</text>
<text x="1105" y="548" text-anchor="middle" fill="#3d6f9e" font-size="10.5">no secrets created</text>
<path d="M910 490 V610 H520 V572" fill="none" stroke="#9bb6cd" stroke-width="1.3" stroke-dasharray="3 4" marker-end="url(#arrow)"/>
<text x="705" y="604" text-anchor="middle" fill="#7a93ab" font-size="10.5" font-weight="600">diagnostic settings → Log Analytics</text>
<text x="56" y="690" fill="#33506b" font-size="11.5" font-weight="700">Flow:</text>
<line x1="96" y1="686" x2="126" y2="686" stroke="#33506b" stroke-width="2" marker-end="url(#arrow)"/>
<text x="132" y="690" fill="#5b7795" font-size="11.5">data / query</text>
<line x1="232" y1="686" x2="262" y2="686" stroke="#8a7fd6" stroke-width="2" stroke-dasharray="5 4" marker-end="url(#arrowMuted)"/>
<text x="268" y="690" fill="#5b7795" font-size="11.5">identity / RBAC</text>
<text x="392" y="690" fill="#5b7795" font-size="11.5">The agent investigates imported history via the Grafana MCP endpoint — no live production access.</text>
</svg>